<svg width="2357" height="364" viewBox="0 0 2357 364" fill="none" xmlns="http://www.w3.org/2000/svg">
  <path d="M1825.6 186.917V271.46H1805.17V193.373C1805.17 169.598 1794.14 155.456 1775.34 155.456C1756.55 155.456 1740.21 174.005 1740.21 198.292V271.46H1719.78V193.373C1719.78 169.598 1708.85 155.456 1689.74 155.456C1670.64 155.456 1654.6 174.005 1654.6 198.292V271.46H1634.17V139.265H1641.12C1641.12 139.265 1648.47 148.078 1654.2 155.251C1659.21 149.288 1665.47 144.5 1672.53 141.225C1679.59 137.95 1687.28 136.266 1695.06 136.293C1703.5 136.017 1711.83 138.267 1719 142.756C1726.17 147.244 1731.84 153.77 1735.3 161.503C1740.04 153.879 1746.61 147.573 1754.41 143.168C1762.21 138.762 1770.99 136.398 1779.94 136.293C1807.42 136.191 1825.6 157.301 1825.6 186.917Z" fill="#FF003B"/>
  <path d="M1983.13 213.153H1870.22C1871.23 224.674 1876.64 235.362 1885.31 243.007C1893.99 250.653 1905.27 254.672 1916.82 254.232C1925.1 254.463 1933.29 252.447 1940.52 248.397C1947.75 244.346 1953.75 238.414 1957.88 231.228H1979.74C1975.02 244.148 1966.4 255.275 1955.07 263.061C1943.73 270.847 1930.26 274.904 1916.51 274.668C1902.72 275.118 1889.1 271.431 1877.42 264.082C1865.74 256.732 1856.52 246.055 1850.95 233.424C1845.38 220.792 1843.72 206.782 1846.17 193.195C1848.62 179.608 1855.08 167.065 1864.71 157.178C1874.34 147.29 1886.7 140.51 1900.22 137.71C1913.73 134.909 1927.77 136.215 1940.54 141.461C1953.3 146.706 1964.21 155.651 1971.85 167.145C1979.5 178.64 1983.53 192.158 1983.43 205.964C1983.64 208.018 1983.33 210.689 1983.13 213.153ZM1870.22 193.744H1962.08C1960 183.088 1954.28 173.489 1945.9 166.588C1937.52 159.687 1927 155.914 1916.15 155.914C1905.3 155.914 1894.78 159.687 1886.4 166.588C1878.02 173.489 1872.3 183.088 1870.22 193.744Z" fill="#FF003B"/>
  <path d="M2144.65 271.723H2134.42C2134.42 271.723 2125.72 261.455 2121.63 256.937C2108.95 268.552 2092.35 274.901 2075.18 274.701C2056.89 274.701 2039.35 267.41 2026.42 254.431C2013.48 241.452 2006.22 223.849 2006.22 205.494C2006.22 187.139 2013.48 169.536 2026.42 156.557C2039.35 143.579 2056.89 136.287 2075.18 136.287C2084.17 136.131 2093.11 137.786 2101.46 141.155C2109.8 144.523 2117.39 149.537 2123.78 155.899V91.9287H2144.24L2144.65 271.723ZM2125.31 205.494C2125.23 195.89 2122.32 186.525 2116.95 178.578C2111.58 170.63 2103.98 164.455 2095.12 160.832C2086.25 157.208 2076.52 156.296 2067.14 158.212C2057.76 160.128 2049.16 164.785 2042.42 171.598C2035.67 178.41 2031.08 187.074 2029.23 196.497C2027.38 205.92 2028.35 215.681 2032.02 224.553C2035.69 233.424 2041.89 241.008 2049.84 246.351C2057.79 251.693 2067.14 254.555 2076.71 254.576C2083.16 254.703 2089.58 253.515 2095.56 251.083C2101.54 248.651 2106.96 245.026 2111.51 240.427C2116.05 235.829 2119.62 230.353 2121.99 224.33C2124.36 218.308 2125.49 211.865 2125.31 205.391V205.494Z" fill="#FF003B"/>
  <path d="M2193.32 103.233V104.466C2193.29 107.446 2192.08 110.295 2189.96 112.393C2187.83 114.491 2184.96 115.668 2181.96 115.668C2180.48 115.681 2179 115.401 2177.62 114.844C2176.25 114.287 2174.99 113.464 2173.94 112.423C2172.88 111.381 2172.04 110.142 2171.47 108.776C2170.9 107.41 2170.61 105.946 2170.61 104.466V103.233C2170.61 100.235 2171.8 97.3592 2173.93 95.2393C2176.06 93.1193 2178.95 91.9287 2181.96 91.9287C2183.45 91.9287 2184.93 92.2206 2186.31 92.7886C2187.68 93.3567 2188.94 94.1896 2189.99 95.2393C2191.05 96.2889 2191.88 97.5352 2192.45 98.9067C2193.02 100.278 2193.32 101.748 2193.32 103.233ZM2192.49 138.79V271.461H2171.84V138.892L2192.49 138.79Z" fill="#FF003B"/>
  <path d="M2356.63 271.775H2347.57C2347.57 271.775 2336.76 257.706 2334.29 254.625C2324.65 264.166 2312.41 270.674 2299.1 273.346C2285.79 276.017 2271.98 274.733 2259.39 269.652C2246.81 264.572 2235.99 255.919 2228.28 244.766C2220.58 233.612 2216.32 220.448 2216.04 206.905C2215.77 193.363 2219.48 180.036 2226.72 168.577C2233.96 157.118 2244.41 148.031 2256.78 142.44C2269.15 136.85 2282.89 135.003 2296.3 137.127C2309.71 139.252 2322.2 145.256 2332.23 154.394C2335.83 147.513 2339.85 139.297 2339.85 139.297H2356.63V271.775ZM2335.21 205.536C2335.13 195.922 2332.2 186.548 2326.78 178.595C2321.37 170.642 2313.71 164.467 2304.78 160.848C2295.85 157.23 2286.05 156.331 2276.61 158.263C2267.17 160.196 2258.51 164.874 2251.73 171.708C2244.95 178.542 2240.35 187.226 2238.51 196.664C2236.68 206.102 2237.68 215.872 2241.4 224.741C2245.12 233.61 2251.39 241.18 2259.42 246.499C2267.45 251.817 2276.88 254.645 2286.52 254.625C2293.01 254.784 2299.46 253.615 2305.48 251.191C2311.5 248.767 2316.96 245.14 2321.53 240.531C2326.09 235.923 2329.66 230.431 2332.01 224.395C2334.36 218.359 2335.45 211.906 2335.21 205.434V205.536Z" fill="#FF003B"/>
  <path d="M348.397 193.443C343.911 188.982 338.335 185.769 332.221 184.126C326.109 182.482 319.671 182.464 313.549 184.074C307.427 185.683 301.833 188.863 297.322 193.3C292.811 197.736 289.539 203.274 287.833 209.363C282.949 228.009 273.224 245.036 259.641 258.725C246.058 272.414 229.099 282.278 210.476 287.322C191.854 292.366 172.229 292.41 153.584 287.451C134.939 282.491 117.935 272.703 104.29 259.075C84.26 238.651 73.0228 211.211 72.9804 182.619C72.9379 154.028 84.0937 126.554 104.063 106.07C124.032 85.5868 151.231 73.7181 179.845 73.0017C208.46 72.2853 236.22 82.7777 257.191 102.236L307.061 49.8543C278.257 22.57 241.309 5.44674 201.852 1.09687C162.396 -3.25301 122.598 5.40905 88.5306 25.7621C54.463 46.1151 27.9961 77.0413 13.1676 113.823C-1.66084 150.604 -4.03659 191.221 6.40261 229.477C16.8418 267.733 39.5229 301.527 70.9857 325.705C102.448 349.883 140.965 363.116 180.66 363.386C220.355 363.655 259.049 350.947 290.838 327.199C322.627 303.451 345.767 269.968 356.726 231.857C359.194 225.334 359.722 218.236 358.244 211.421C356.766 204.605 353.346 198.362 348.397 193.443Z" fill="url(#paint0_linear_1_4321)"/>
  <path style="mix-blend-mode:darken" d="M256.367 101.663L306.07 49.6163C276.638 21.8234 238.708 4.64307 198.33 0.814444C157.951 -3.01418 117.448 6.72923 83.2773 28.4914L109 99.1114C129.365 80.9639 155.861 71.1445 183.186 71.6176C210.51 72.0906 236.647 82.8213 256.367 101.663Z" fill="url(#paint1_radial_1_4321)"/>
  <path d="M348.278 193.335C343.79 188.876 338.211 185.666 332.096 184.023C325.981 182.38 319.541 182.362 313.417 183.971C307.292 185.579 301.696 188.758 297.183 193.192C292.67 197.626 289.398 203.161 287.691 209.247C281.612 232.719 267.903 253.515 248.711 268.377C229.519 283.238 205.93 291.326 181.638 291.373H178.449L204.165 362.309C239.548 357.874 272.851 343.177 299.947 320.04C327.044 296.902 346.745 266.341 356.609 232.14C359.166 225.566 359.739 218.389 358.259 211.494C356.778 204.599 353.309 198.287 348.278 193.335Z" fill="url(#paint2_linear_1_4321)"/>
  <path d="M310.572 52.592C314.697 56.7574 317.767 61.854 319.524 67.4545C321.28 73.055 321.673 78.9965 320.668 84.7804C319.663 90.5644 317.291 96.0225 313.749 100.697C310.207 105.372 305.6 109.127 300.313 111.648C296.65 113.442 292.682 114.524 288.618 114.838C283.181 115.455 275.487 114.323 268.716 115.558C261.204 116.969 254.156 120.22 248.199 125.023C240.931 130.883 235.66 138.865 233.119 147.863C231.344 158.954 231.518 170.27 233.632 181.301C233.814 187.691 232.876 194.064 230.862 200.129C227.796 208.454 222.69 215.872 216.014 221.699C209.338 227.526 201.308 231.573 192.662 233.469C184.017 235.365 175.035 235.049 166.543 232.549C158.052 230.048 150.325 225.444 144.074 219.162C137.838 212.874 133.275 205.116 130.805 196.6C128.334 188.084 128.035 179.083 129.934 170.421C131.832 161.758 135.869 153.713 141.673 147.022C147.478 140.33 154.864 135.207 163.155 132.122C169.165 130.095 175.487 129.154 181.825 129.344C192.854 131.292 204.137 131.292 215.166 129.344C224.128 126.829 232.088 121.579 237.94 114.323C242.733 108.351 245.975 101.281 247.378 93.7458C248.609 86.9554 247.378 79.2391 248.097 73.7862C248.522 69.7307 249.595 65.7708 251.277 62.0578C253.79 56.7555 257.535 52.1344 262.196 48.5825C266.857 45.0306 272.299 42.6512 278.067 41.6436C283.834 40.6359 289.758 41.0297 295.342 42.7915C300.926 44.5532 306.008 47.632 310.161 51.7694L310.572 52.592Z" fill="#FF003B"/>
  <path d="M442.34 267.036V95.7879C442.34 94.4778 442.857 93.2213 443.777 92.2949C444.697 91.3685 445.945 90.8477 447.246 90.8477H556.401C557.702 90.8477 558.95 91.3685 559.87 92.2949C560.79 93.2213 561.307 94.4778 561.307 95.7879V117.4C561.307 118.71 560.79 119.966 559.87 120.893C558.95 121.819 557.702 122.339 556.401 122.339H477.294V164.431H536.369C537.67 164.431 538.918 164.951 539.838 165.878C540.758 166.804 541.275 168.061 541.275 169.371V190.674C541.275 191.323 541.148 191.965 540.901 192.565C540.655 193.164 540.293 193.708 539.838 194.167C539.382 194.626 538.841 194.99 538.246 195.238C537.651 195.486 537.013 195.614 536.369 195.614H477.294V239.352H556.401C557.685 239.352 558.917 239.859 559.834 240.763C560.751 241.667 561.28 242.897 561.307 244.189V266.624C561.28 267.917 560.751 269.147 559.834 270.051C558.917 270.955 557.685 271.461 556.401 271.461H447.246C446.028 271.468 444.852 271.019 443.946 270.201C443.039 269.383 442.467 268.255 442.34 267.036Z" fill="white"/>
  <path d="M868.135 270.364C844.413 270.364 821.663 260.909 804.889 244.077C788.115 227.246 778.691 204.418 778.691 180.615C778.691 156.812 788.115 133.983 804.889 117.152C821.663 100.321 844.413 90.8649 868.135 90.8649C892.414 90.3945 915.893 99.5751 933.454 116.405C950.036 133.618 959.305 156.623 959.305 180.563C959.305 204.504 950.036 227.508 933.454 244.722C915.91 261.589 892.428 270.807 868.135 270.364ZM868.135 121.739C852.573 121.739 837.649 127.942 826.645 138.983C815.642 150.025 809.46 165 809.46 180.615C809.46 196.229 815.642 211.205 826.645 222.247C837.649 233.288 852.573 239.49 868.135 239.49C883.696 239.49 898.62 233.288 909.624 222.247C920.628 211.205 926.81 196.229 926.81 180.615C926.81 165 920.628 150.025 909.624 138.983C898.62 127.942 883.696 121.739 868.135 121.739Z" fill="white"/>
  <path d="M1195.56 266.179L1177.01 143.866L1120.44 266.793C1120.07 267.644 1119.45 268.363 1118.66 268.857C1117.88 269.35 1116.96 269.595 1116.03 269.56C1115.1 269.576 1114.17 269.324 1113.38 268.834C1112.58 268.344 1111.93 267.636 1111.52 266.793L1055.05 143.866L1036.5 266.179C1036.35 267.347 1035.78 268.419 1034.89 269.193C1034.01 269.966 1032.87 270.388 1031.69 270.379H1006.37C1005.67 270.389 1004.96 270.244 1004.32 269.952C1003.67 269.661 1003.1 269.23 1002.64 268.692C1002.18 268.154 1001.85 267.522 1001.66 266.84C1001.47 266.157 1001.44 265.442 1001.56 264.745L1028 96.2313C1028.17 95.0725 1028.75 94.0126 1029.63 93.2426C1030.51 92.4726 1031.64 92.0434 1032.81 92.0315H1061.31C1062.27 92.0331 1063.2 92.3153 1064.01 92.8431C1064.81 93.3709 1065.44 94.1212 1065.82 95.0021L1111.42 198.364C1111.82 199.212 1112.45 199.929 1113.24 200.432C1114.03 200.935 1114.94 201.202 1115.88 201.202C1116.82 201.202 1117.73 200.935 1118.52 200.432C1119.31 199.929 1119.94 199.212 1120.34 198.364L1166.25 94.8995C1166.6 94.0188 1167.21 93.2643 1168 92.7343C1168.78 92.2043 1169.71 91.9237 1170.66 91.929H1199.15C1200.34 91.9163 1201.49 92.3347 1202.4 93.1069C1203.3 93.8791 1203.9 94.9525 1204.07 96.1287L1230.72 264.745C1230.82 265.448 1230.77 266.165 1230.57 266.847C1230.37 267.529 1230.02 268.159 1229.56 268.695C1229.09 269.23 1228.51 269.658 1227.86 269.949C1227.21 270.24 1226.51 270.386 1225.8 270.379H1199.97C1198.86 270.293 1197.82 269.828 1197.02 269.063C1196.22 268.298 1195.7 267.279 1195.56 266.179Z" fill="white"/>
  <path d="M1271.87 266.359V96.927C1271.86 96.2735 1271.97 95.6238 1272.22 95.0172C1272.46 94.4107 1272.82 93.8597 1273.28 93.3975C1273.74 92.9353 1274.28 92.5717 1274.89 92.3281C1275.49 92.0845 1276.13 91.9662 1276.78 91.9803H1338.69C1350.65 91.5722 1362.56 93.5903 1373.72 97.9152C1384.88 102.24 1395.07 108.783 1403.66 117.154C1412.26 125.525 1419.1 135.553 1423.77 146.641C1428.44 157.729 1430.85 169.65 1430.85 181.694C1430.85 193.739 1428.44 205.66 1423.77 216.748C1419.1 227.836 1412.26 237.864 1403.66 246.235C1395.07 254.606 1384.88 261.149 1373.72 265.474C1362.56 269.798 1350.65 271.817 1338.69 271.409H1276.78C1276.12 271.424 1275.47 271.302 1274.86 271.052C1274.25 270.803 1273.7 270.429 1273.24 269.956C1272.78 269.483 1272.42 268.919 1272.18 268.3C1271.95 267.682 1271.84 267.021 1271.87 266.359ZM1306.36 239.46H1337.57C1352.39 238.83 1366.39 232.458 1376.66 221.675C1386.92 210.891 1392.66 196.53 1392.66 181.592C1392.66 166.653 1386.92 152.292 1376.66 141.509C1366.39 130.725 1352.39 124.353 1337.57 123.723H1306.36V239.46Z" fill="white"/>
  <path d="M1497.04 266.028V216.726C1497.05 204.653 1493.82 192.796 1487.67 182.389L1439.08 100.39C1438.65 99.6467 1438.42 98.8036 1438.42 97.9449C1438.42 97.0862 1438.64 96.2413 1439.07 95.4951C1439.49 94.7488 1440.11 94.1268 1440.85 93.6908C1441.59 93.2549 1442.44 93.0203 1443.3 93.0102H1468.11C1468.97 92.999 1469.82 93.2223 1470.56 93.6558C1471.31 94.0893 1471.92 94.7164 1472.33 95.47L1510.93 161.89C1511.39 162.61 1512.02 163.203 1512.76 163.614C1513.51 164.026 1514.35 164.241 1515.21 164.241C1516.06 164.241 1516.9 164.026 1517.65 163.614C1518.39 163.203 1519.02 162.61 1519.48 161.89L1558.08 95.47C1558.49 94.7164 1559.1 94.0893 1559.85 93.6558C1560.59 93.2223 1561.44 92.999 1562.3 93.0102H1587.11C1587.97 93.0203 1588.82 93.2549 1589.56 93.6908C1590.3 94.1268 1590.92 94.7488 1591.35 95.4951C1591.77 96.2413 1592 97.0862 1591.99 97.9449C1591.99 98.8036 1591.76 99.6467 1591.33 100.39L1542.33 183.106C1536.09 193.552 1532.81 205.492 1532.86 217.648V266.54C1532.86 267.845 1532.34 269.097 1531.41 270.019C1530.49 270.942 1529.23 271.46 1527.92 271.46H1501.98C1501.28 271.464 1500.6 271.322 1499.96 271.043C1499.32 270.765 1498.75 270.356 1498.29 269.843C1497.82 269.33 1497.47 268.726 1497.25 268.069C1497.04 267.411 1496.96 266.716 1497.04 266.028Z" fill="white"/>
  <path d="M687.981 270.379C664.138 270.379 641.271 260.922 624.411 244.089C607.552 227.255 598.08 204.424 598.08 180.618C598.08 156.813 607.552 133.982 624.411 117.148C641.271 100.315 664.138 90.8582 687.981 90.8582C709.73 90.5321 730.912 97.7874 747.88 111.375C748.388 111.836 748.794 112.399 749.071 113.026C749.349 113.653 749.493 114.331 749.493 115.017C749.493 115.703 749.349 116.38 749.071 117.007C748.794 117.634 748.388 118.197 747.88 118.658L731.544 134.559C730.63 135.346 729.463 135.779 728.256 135.779C727.049 135.779 725.882 135.346 724.968 134.559C714.471 125.949 701.256 121.332 687.673 121.53C672.031 121.53 657.031 127.734 645.971 138.777C634.911 149.82 628.698 164.797 628.698 180.414C628.698 196.03 634.911 211.007 645.971 222.05C657.031 233.093 672.031 239.296 687.673 239.296C700.952 239.416 713.881 235.04 724.352 226.884C725.266 226.097 726.433 225.664 727.64 225.664C728.847 225.664 730.013 226.097 730.928 226.884L746.956 242.681C747.464 243.143 747.869 243.705 748.147 244.332C748.424 244.959 748.568 245.638 748.568 246.323C748.568 247.009 748.424 247.687 748.147 248.314C747.869 248.941 747.464 249.503 746.956 249.965C730.196 263.27 709.393 270.47 687.981 270.379Z" fill="white"/>
  <defs>
    <linearGradient id="paint0_linear_1_4321" x1="85.3703" y1="347.098" x2="272.611" y2="24.4061" gradientUnits="userSpaceOnUse">
      <stop stop-color="#FF003B"/>
      <stop offset="0.37" stop-color="#FF003B"/>
      <stop offset="1" stop-color="#C60039"/>
    </linearGradient>
    <radialGradient id="paint1_radial_1_4321" cx="0" cy="0" r="1" gradientUnits="userSpaceOnUse" gradientTransform="translate(286.291 81.3543) scale(165.609 164.916)">
      <stop offset="0.02" stop-color="#720031"/>
      <stop offset="0.13" stop-color="#830032" stop-opacity="0.88"/>
      <stop offset="0.72" stop-color="#DC0039" stop-opacity="0.25"/>
      <stop offset="1" stop-color="#FF003B" stop-opacity="0"/>
    </radialGradient>
    <linearGradient id="paint2_linear_1_4321" x1="335.831" y1="230.497" x2="202.798" y2="323.654" gradientUnits="userSpaceOnUse">
      <stop stop-color="#FF003B"/>
      <stop offset="0.09" stop-color="#FF003B" stop-opacity="0.97"/>
      <stop offset="0.22" stop-color="#FF003B" stop-opacity="0.9"/>
      <stop offset="0.37" stop-color="#FF003B" stop-opacity="0.77"/>
      <stop offset="0.54" stop-color="#FF003B" stop-opacity="0.59"/>
      <stop offset="0.73" stop-color="#FF003B" stop-opacity="0.37"/>
      <stop offset="0.93" stop-color="#FF003B" stop-opacity="0.1"/>
      <stop offset="1" stop-color="#FF003B" stop-opacity="0"/>
    </linearGradient>
  </defs>
</svg>
